<svg version="1.2" xmlns="http://www.w3.org/2000/svg" viewBox="0 0 24 24" width="24" height="24">
	<title>AA0040-svg</title>
	<g id="Layer">
		<path id="Path_2520" fill-rule="evenodd" class="s0" d="m20.3 3.2v17.4c0 0.8-0.7 1.5-1.5 1.5h-17.3c-0.8 0-1.5-0.7-1.5-1.5v-17.4c0-0.8 0.7-1.4 1.5-1.4h17.3c0.8 0 1.5 0.6 1.5 1.4zm-14 3.1c0-0.9-0.8-1.7-1.8-1.7-0.9 0-1.7 0.8-1.7 1.7 0 1 0.8 1.8 1.7 1.8 1 0 1.8-0.8 1.8-1.8zm-0.3 3.1h-3v9.7h3zm11.3 4.3c0-2.6-0.6-4.6-3.6-4.6-1.2 0-2.3 0.6-2.9 1.6v-1.3h-2.9v9.7h3v-4.8c0-1.3 0.3-2.5 1.8-2.5 1.6 0 1.6 1.4 1.6 2.5v4.8h3z"/>
	</g>
</svg>